<?xml version="1.0" encoding="utf-8"?>
<!-- Generator: Adobe Illustrator 21.0.0, SVG Export Plug-In . SVG Version: 6.00 Build 0)  -->
<svg version="1.1" id="stroller" xmlns="http://www.w3.org/2000/svg" xmlns:xlink="http://www.w3.org/1999/xlink" x="0px" y="0px"
	 viewBox="0 0 65 65" style="enable-background:new 0 0 65 65;" xml:space="preserve">
<style type="text/css">
	.st0{fill:#152D54;}
</style>
<g>
	<path class="st0" d="M20,28.6H55c0,2.1-0.5,4.1-1.5,6c-1,1.9-2.4,3.6-4.1,5c-1.7,1.4-3.7,2.5-6,3.3c-2.3,0.8-4.7,1.2-7.3,1.2
		c-2.6,0-5.1-0.4-7.4-1.2c-2.3-0.8-4.3-1.9-6-3.3s-3.1-3.1-4-5c-1-1.9-1.5-3.9-1.5-6h0c0-0.4-0.1-0.9-0.3-1.5
		c-0.2-0.6-0.5-1.2-1-1.8c-0.6-0.7-1.3-1.3-2.2-1.7c-0.9-0.5-1.8-0.8-3-1.1c-0.2,0.1-0.4,0.2-0.6,0.3c-0.2,0.1-0.4,0.1-0.7,0.1H7.5
		c-0.5,0-1-0.2-1.4-0.6c-0.4-0.4-0.6-0.8-0.6-1.4c0-0.5,0.2-1,0.6-1.4c0.4-0.4,0.8-0.6,1.4-0.6h2.1c0.3,0,0.6,0.1,0.8,0.2
		c0.3,0.1,0.5,0.3,0.6,0.5c1.6,0.3,3,0.8,4.1,1.5c1.2,0.6,2.2,1.5,3,2.5c0.7,0.9,1.2,1.9,1.5,2.8C19.8,27.2,19.9,27.9,20,28.6z
		 M28.6,44.7c1.5,0,2.8,0.5,3.8,1.6c1.1,1.1,1.6,2.3,1.6,3.8c0,1.5-0.5,2.7-1.6,3.8c-1.1,1-2.3,1.6-3.8,1.6c-1.5,0-2.7-0.5-3.8-1.6
		c-1-1-1.6-2.3-1.6-3.8c0-1.5,0.5-2.8,1.6-3.8C25.9,45.3,27.1,44.7,28.6,44.7z M30.5,52c0.5-0.5,0.8-1.1,0.8-1.8
		c0-0.7-0.3-1.4-0.8-1.9c-0.5-0.5-1.1-0.8-1.9-0.8c-0.7,0-1.3,0.3-1.8,0.8c-0.5,0.5-0.8,1.1-0.8,1.9c0,0.7,0.3,1.3,0.8,1.8
		c0.5,0.5,1.1,0.8,1.8,0.8C29.4,52.8,30,52.5,30.5,52z M54.9,26.3H39.1l-4.4-15.5c0.3-0.1,0.5-0.1,0.8-0.2c0.3-0.1,0.5-0.1,0.8-0.2
		c0.5-0.1,0.9-0.2,1.4-0.2c0.5,0,0.9,0,1.4,0c2.2,0,4.2,0.4,6.1,1.3c1.9,0.8,3.6,2,5,3.5c1.4,1.5,2.5,3.2,3.4,5.1
		C54.5,22,54.9,24.1,54.9,26.3z M43.2,44.7c1.5,0,2.7,0.5,3.8,1.6c1,1.1,1.6,2.3,1.6,3.8c0,1.5-0.5,2.7-1.6,3.8
		c-1,1-2.3,1.6-3.8,1.6c-1.5,0-2.8-0.5-3.8-1.6c-1.1-1-1.6-2.3-1.6-3.8c0-1.5,0.5-2.8,1.6-3.8C40.4,45.3,41.7,44.7,43.2,44.7z
		 M43.2,52.8c0.7,0,1.4-0.3,1.9-0.8c0.5-0.5,0.7-1.1,0.7-1.8c0-0.7-0.2-1.4-0.7-1.9c-0.5-0.5-1.1-0.8-1.9-0.8
		c-0.7,0-1.4,0.3-1.9,0.8c-0.5,0.5-0.8,1.1-0.8,1.9c0,0.7,0.3,1.3,0.8,1.8C41.8,52.5,42.4,52.8,43.2,52.8z"/>
</g>
</svg>
