<svg version="1.1" xmlns="http://www.w3.org/2000/svg" xmlns:xlink="http://www.w3.org/1999/xlink" x="0px" y="0px"
	 viewBox="0 0 65 65" style="enable-background:new 0 0 65 65;" xml:space="preserve">
<style type="text/css">
	.st0{fill:#152D54;}
	.st1{fill:#7A7A7A;}
	.st2{fill:#FFFFFF;}
</style>
<g id="baggage">
	<g>
		<path class="st0" d="M51.5,52h-38c-2.2,0-4-1.8-4-4V26c0-2.2,1.8-4,4-4h38c2.2,0,4,1.8,4,4v22C55.5,50.2,53.7,52,51.5,52z"/>
	</g>
	<g>
		<path class="st0" d="M25.5,19.7c0-1.4,1.1-2.6,2.5-2.6h9c1.4,0,2.5,1.2,2.5,2.6V21h3v-1.3c0-3.2-2.5-5.7-5.5-5.7h-9
			c-3,0-5.5,2.5-5.5,5.7V21h3V19.7z"/>
	</g>
</g>
<g id="no">
	<path class="st1" d="M55.5,9.5c-12.7-12.7-33.3-12.7-46,0c-12.7,12.7-12.7,33.3,0,46c12.7,12.7,33.3,12.7,46,0
		C68.2,42.8,68.2,22.2,55.5,9.5z M51.1,13.9c9.5,9.5,10.2,24.5,2.1,34.8L16.3,11.9C26.6,3.8,41.6,4.5,51.1,13.9z M13.9,51.1
		c-9.5-9.5-10.2-24.5-2.1-34.8l36.8,36.8C38.4,61.2,23.4,60.5,13.9,51.1z"/>
</g>
</svg>
