<svg version="1.1" xmlns="http://www.w3.org/2000/svg" xmlns:xlink="http://www.w3.org/1999/xlink" x="0px" y="0px"
	 viewBox="0 0 65 65" style="enable-background:new 0 0 65 65;" xml:space="preserve">
<style type="text/css">
	.st0{fill:#152D54;}
	.st2{fill:#FFFFFF;}
</style>
<g id="baggage">
	<g>
		<path class="st0" d="M51.5,52h-38c-2.2,0-4-1.8-4-4V26c0-2.2,1.8-4,4-4h38c2.2,0,4,1.8,4,4v22C55.5,50.2,53.7,52,51.5,52z"/>
	</g>
	<g>
		<path class="st0" d="M25.5,19.7c0-1.4,1.1-2.6,2.5-2.6h9c1.4,0,2.5,1.2,2.5,2.6V21h3v-1.3c0-3.2-2.5-5.7-5.5-5.7h-9
			c-3,0-5.5,2.5-5.5,5.7V21h3V19.7z"/>
	</g>
</g>
<g id="_x33_2kg">
	<g>
		<path class="st2" d="M17.8,36.2H19c0.6,0,1-0.2,1.4-0.5s0.5-0.7,0.5-1.3c0-0.5-0.1-1-0.4-1.3c-0.3-0.3-0.7-0.4-1.3-0.4
			c-0.5,0-0.9,0.1-1.3,0.4c-0.3,0.3-0.5,0.7-0.5,1.2h-1.9c0-0.6,0.2-1.1,0.5-1.6c0.3-0.5,0.7-0.9,1.3-1.1c0.6-0.3,1.2-0.4,1.9-0.4
			c1.1,0,2,0.3,2.7,0.9s1,1.4,1,2.4c0,0.5-0.2,1-0.5,1.4c-0.3,0.5-0.7,0.8-1.3,1c0.6,0.2,1.1,0.5,1.4,1c0.3,0.5,0.5,1,0.5,1.6
			c0,1-0.4,1.8-1.1,2.4c-0.7,0.6-1.6,0.9-2.8,0.9c-1.1,0-2-0.3-2.7-0.9c-0.7-0.6-1-1.4-1-2.3h1.9c0,0.5,0.2,0.9,0.5,1.2
			s0.8,0.5,1.4,0.5c0.6,0,1.1-0.2,1.4-0.5s0.5-0.8,0.5-1.4c0-0.6-0.2-1.1-0.5-1.4c-0.4-0.3-0.9-0.5-1.6-0.5h-1.1V36.2z"/>
		<path class="st2" d="M32.4,42.8h-7.6v-1.3l3.8-4.1c0.5-0.6,0.9-1.1,1.2-1.5c0.2-0.4,0.3-0.8,0.3-1.2c0-0.5-0.2-1-0.5-1.3
			c-0.3-0.3-0.7-0.5-1.2-0.5c-0.6,0-1.1,0.2-1.4,0.6s-0.5,0.9-0.5,1.5h-1.9c0-0.7,0.2-1.3,0.5-1.9s0.8-1,1.4-1.3
			c0.6-0.3,1.3-0.5,2-0.5c1.1,0,2,0.3,2.6,0.8s1,1.3,1,2.3c0,0.6-0.2,1.2-0.5,1.8c-0.3,0.6-0.8,1.3-1.6,2.1l-2.8,3h5.3V42.8z"/>
		<path class="st2" d="M36.7,39.1L35.8,40v2.8h-1.9v-12h1.9v6.9l0.6-0.7l2.3-2.6H41l-3.1,3.5l3.5,4.9h-2.2L36.7,39.1z"/>
		<path class="st2" d="M41.8,38.5c0-1.3,0.3-2.4,0.9-3.1c0.6-0.8,1.4-1.2,2.5-1.2c1,0,1.7,0.3,2.3,1l0.1-0.9h1.7v8.2
			c0,1.1-0.3,2-1,2.6s-1.6,1-2.8,1c-0.6,0-1.2-0.1-1.8-0.4s-1-0.6-1.3-1l0.9-1.1c0.6,0.7,1.3,1,2.2,1c0.6,0,1.1-0.2,1.5-0.5
			s0.5-0.8,0.5-1.5V42c-0.5,0.6-1.3,0.9-2.2,0.9c-1,0-1.8-0.4-2.4-1.2C42.1,40.9,41.8,39.9,41.8,38.5z M43.7,38.6
			c0,0.8,0.2,1.5,0.5,2c0.3,0.5,0.8,0.7,1.4,0.7c0.8,0,1.3-0.3,1.7-1v-3.7c-0.4-0.6-0.9-1-1.7-1c-0.6,0-1.1,0.2-1.5,0.7
			C43.9,36.9,43.7,37.7,43.7,38.6z"/>
	</g>
</g>
</svg>
